<?xml version="1.0" encoding="iso-8859-1"?>
<!DOCTYPE svg PUBLIC "-//W3C//DTD SVG 1.1//EN" "http://www.w3.org/Graphics/SVG/1.1/DTD/svg11.dtd">
<svg 
 version="1.1" xmlns="http://www.w3.org/2000/svg" xmlns:xlink="http://www.w3.org/1999/xlink" x="0px" y="0px" width="512px"
	 height="512px" viewBox="0 0 512 512" style="enable-background:new 0 0 512 512;" xml:space="preserve"
><g id="afcae5a789ccd549f9c6e2a2f80af89e"><g></g><path style="display: inline;" d="M511.5,468.347L373.445,341.894c62.404-84.03,52.382-203.343-26.489-275.583
		c-39.694-36.354-89.721-54.302-139.615-54.297C151.374,12.018,95.578,34.605,54.798,79.129
		c-77.135,84.215-71.4,215.02,12.823,292.159c39.69,36.354,89.712,54.297,139.606,54.297c49.249,0,98.357-17.516,137.224-52.056
		L482.52,499.986L511.5,468.347z M207.227,380.585c-40.521,0-79.306-15.09-109.214-42.483
		c-31.869-29.188-50.461-69.041-52.355-112.212c-1.898-43.176,13.135-84.5,42.322-116.368c30.563-33.367,74.068-52.505,119.37-52.51
		h0.004c40.517,0,79.297,15.087,109.209,42.481c65.78,60.252,70.275,162.791,10.021,228.58
		C296.021,361.444,252.516,380.585,207.227,380.585z"></path></g></svg>