<?xml version="1.0" encoding="UTF-8" standalone="no"?>
<svg width="160px" height="39px" viewBox="0 0 160 39" version="1.1" xmlns="http://www.w3.org/2000/svg" xmlns:xlink="http://www.w3.org/1999/xlink">
    <!-- Generator: Sketch 39.1 (31720) - http://www.bohemiancoding.com/sketch -->
    <title>player-logo</title>
    <desc>Created with Sketch.</desc>
    <defs></defs>
    <g id="Symbols" stroke="none" stroke-width="1" fill="none" fill-rule="evenodd">
        <g id="player-logo">
            <g id="Group-7">
                <g id="Group-6" fill="#666C6E">
                    <path d="M0.485351562,15 L1.63671875,15 L1.63671875,9.19042969 C1.63671875,7.64355469 2.70019531,6.41308594 4.07128906,6.41308594 C5.38085938,6.41308594 6.25097656,7.30078125 6.25097656,8.66308594 L6.25097656,15 L7.40234375,15 L7.40234375,8.99707031 C7.40234375,7.52929688 8.37792969,6.41308594 9.83691406,6.41308594 C11.2607422,6.41308594 12.0253906,7.23925781 12.0253906,8.78613281 L12.0253906,15 L13.1767578,15 L13.1767578,8.52246094 C13.1767578,6.51855469 12.078125,5.37597656 10.1796875,5.37597656 C8.81738281,5.37597656 7.70996094,6.10546875 7.2265625,7.23925781 L7.11230469,7.23925781 C6.70800781,6.10546875 5.75878906,5.37597656 4.43164062,5.37597656 C3.12207031,5.37597656 2.11132812,6.07910156 1.69824219,7.23925781 L1.58398438,7.23925781 L1.58398438,5.53417969 L0.485351562,5.53417969 L0.485351562,15 Z M18.8096484,14.1386719 C17.5352344,14.1386719 16.6123828,13.453125 16.6123828,12.3632812 C16.6123828,11.2822266 17.3858203,10.6845703 18.9942188,10.5703125 L21.7979297,10.3681641 L21.7979297,11.4755859 C21.7979297,12.9785156 20.5059375,14.1386719 18.8096484,14.1386719 L18.8096484,14.1386719 Z M18.6162891,15.1582031 C20.0049609,15.1582031 21.1651172,14.4990234 21.7451953,13.3740234 L21.8506641,13.3740234 L21.8506641,15 L22.9580859,15 L22.9580859,8.50488281 C22.9580859,6.53613281 21.70125,5.37597656 19.4776172,5.37597656 C17.4912891,5.37597656 16.0235156,6.36914062 15.8037891,7.87207031 L16.9727344,7.87207031 C17.20125,6.95800781 18.1416797,6.40429688 19.4424609,6.40429688 C20.9805469,6.40429688 21.7979297,7.16015625 21.7979297,8.51367188 L21.7979297,9.42773438 L18.8360156,9.62109375 C16.6475391,9.77050781 15.4258594,10.7285156 15.4258594,12.3808594 C15.4258594,14.0771484 16.7617969,15.1582031 18.6162891,15.1582031 L18.6162891,15.1582031 Z M29.3204688,15.1582031 C30.7706641,15.1582031 31.9923438,14.3759766 32.5548438,13.1103516 L32.6603125,13.1103516 L32.6603125,15 L33.7677344,15 L33.7677344,1.76367188 L32.6163672,1.76367188 L32.6163672,7.37988281 L32.5108984,7.37988281 C31.9747656,6.140625 30.761875,5.37597656 29.3204688,5.37597656 C26.9210547,5.37597656 25.3126563,7.3359375 25.3126563,10.2714844 C25.3126563,13.2070312 26.9034766,15.1582031 29.3204688,15.1582031 L29.3204688,15.1582031 Z M29.5665625,6.41308594 C31.4210547,6.41308594 32.6339453,7.94238281 32.6339453,10.2626953 C32.6339453,12.6005859 31.4298438,14.1123047 29.5665625,14.1123047 C27.6944922,14.1123047 26.4991797,12.6181641 26.4991797,10.2626953 C26.4991797,7.91601562 27.6944922,6.41308594 29.5665625,6.41308594 L29.5665625,6.41308594 Z M40.4904688,6.39550781 C42.2043359,6.39550781 43.338125,7.66992188 43.3644922,9.62109375 L37.4670313,9.62109375 C37.5725,7.66992188 38.7678125,6.39550781 40.4904688,6.39550781 L40.4904688,6.39550781 Z M43.2502344,12.6621094 C42.8459375,13.59375 41.8791406,14.1298828 40.5344141,14.1298828 C38.7062891,14.1298828 37.5197656,12.7587891 37.4582422,10.6230469 L37.4582422,10.5703125 L44.5685938,10.5703125 L44.5685938,10.0605469 C44.5685938,7.16894531 43.0217188,5.37597656 40.4992578,5.37597656 C37.9240625,5.37597656 36.2717188,7.30078125 36.2717188,10.2714844 C36.2717188,13.2597656 37.9064844,15.1582031 40.5080469,15.1582031 C42.494375,15.1582031 43.9533594,14.2001953 44.4191797,12.6621094 L43.2502344,12.6621094 Z M63.4632813,5.53417969 L62.303125,5.53417969 L60.1849609,13.5673828 L60.0794922,13.5673828 L57.7416016,5.53417969 L56.5902344,5.53417969 L54.2523438,13.5673828 L54.146875,13.5673828 L52.0462891,5.53417969 L50.8773438,5.53417969 L53.5580078,15 L54.7708984,15 L57.1,7.14257812 L57.2142578,7.14257812 L59.5433594,15 L60.7650391,15 L63.4632813,5.53417969 Z M65.5102344,15 L66.6616016,15 L66.6616016,5.53417969 L65.5102344,5.53417969 L65.5102344,15 Z M66.0815234,3.42480469 C66.5561328,3.42480469 66.9428516,3.03808594 66.9428516,2.56347656 C66.9428516,2.09765625 66.5561328,1.7109375 66.0815234,1.7109375 C65.6157031,1.7109375 65.2289844,2.09765625 65.2289844,2.56347656 C65.2289844,3.03808594 65.6157031,3.42480469 66.0815234,3.42480469 L66.0815234,3.42480469 Z M70.1939063,3.07324219 L70.1939063,5.53417969 L68.6470313,5.53417969 L68.6470313,6.50976562 L70.1939063,6.50976562 L70.1939063,12.6445312 C70.1939063,14.3671875 70.9146094,15.0527344 72.7251563,15.0527344 C72.9273047,15.0527344 73.3316016,15.0263672 73.53375,14.9912109 L73.53375,14.0068359 C73.3403906,14.0244141 73.0327735,14.0332031 72.8482031,14.0332031 C71.7847266,14.0332031 71.3452735,13.5410156 71.3452735,12.3808594 L71.3452735,6.50976562 L73.53375,6.50976562 L73.53375,5.53417969 L71.3452735,5.53417969 L71.3452735,3.07324219 L70.1939063,3.07324219 Z M75.9674219,15 L77.1187891,15 L77.1187891,9.375 C77.1187891,7.63476562 78.235,6.41308594 80.0279688,6.41308594 C81.61,6.41308594 82.4713281,7.35351562 82.4713281,9.13769531 L82.4713281,15 L83.6226953,15 L83.6226953,8.84765625 C83.6226953,6.65917969 82.3570703,5.37597656 80.335586,5.37597656 C78.8238672,5.37597656 77.7340235,6.0703125 77.2242578,7.23925781 L77.1187891,7.23925781 L77.1187891,1.76367188 L75.9674219,1.76367188 L75.9674219,15 Z" id="made-with"></path>
                    <path d="M124.295,0 L121.411,1.22 L121.411,9.043 L121.411,9.043 C121.514322,12.0338064 123.978467,14.399563 126.971,14.381 L126.971,11.53 C126.265254,11.5347901 125.586513,11.2590191 125.084099,10.763357 C124.581686,10.2676949 124.296758,9.59274614 124.292,8.887 L124.292,6.199 L126.971,6.199 L126.971,3.355 L124.295,3.355 L124.295,0 L124.295,0 Z M114.725,3.355 C111.702103,3.39519141 109.280328,5.87130954 109.307217,8.89435378 C109.334106,11.917398 111.799544,14.3500457 114.822677,14.3364593 C117.84581,14.3228729 120.289283,11.8681638 120.289,8.845 C120.268083,5.79272582 117.777281,3.33505054 114.725,3.355 L114.725,3.355 Z M114.725,11.489 C113.269731,11.4697336 112.103662,10.2779844 112.116097,8.8226412 C112.128532,7.36729798 113.314795,6.19564794 114.77018,6.20125128 C116.225566,6.20685461 117.402772,7.38760417 117.404,8.843 C117.400035,9.54926762 117.115456,10.2249866 116.612956,10.7212966 C116.110457,11.2176066 115.431263,11.4937887 114.725,11.489 L114.725,11.489 Z M133.234,3.355 C130.211243,3.3957402 127.789971,5.87209346 127.817223,8.89500263 C127.844476,11.9179118 130.310001,14.3502089 133.333002,14.3364444 C136.356002,14.32268 138.799276,11.868032 138.799,8.845 C138.778084,5.79233272 136.28667,3.33449576 133.234,3.355 L133.234,3.355 Z M133.234,11.489 C131.778454,11.4708313 130.611379,10.2795531 130.623086,8.82394032 C130.634794,7.36832758 131.82088,6.19597641 133.276531,6.20122313 C134.732181,6.20646986 135.909786,7.38734068 135.911,8.843 C135.902189,10.3128004 134.703803,11.4973087 133.234,11.489 L133.234,11.489 Z M96.564,3.355 C93.5117193,3.33505054 91.0209169,5.79272582 91,8.845 C91,8.917 91,8.989 91.006,9.061 L91,9.061 L91,16.573 L93.885,17.793 L93.885,13.658 C94.7073402,14.1042479 95.6283832,14.337345 96.564,14.336 C98.5432251,14.3627116 100.383643,13.3221095 101.381047,11.6123635 C102.378451,9.90261755 102.378451,7.78838245 101.381047,6.07863649 C100.383643,4.36889053 98.5432251,3.32828845 96.564,3.355 L96.564,3.355 Z M96.564,11.489 C95.1087312,11.4697336 93.9426625,10.2779844 93.9550975,8.8226412 C93.9675324,7.36729798 95.1537949,6.19564794 96.6091805,6.20125128 C98.064566,6.20685461 99.2417716,7.38760417 99.243,8.843 C99.2387699,9.54918463 98.9541069,10.2247488 98.451665,10.7210015 C97.9492232,11.2172543 97.2701828,11.4935226 96.564,11.489 L96.564,11.489 Z M103.175,8.689 L103.175,8.689 L103.175,14.372 L106.06,14.372 L106.06,8.843 C106.064758,8.13725386 106.349686,7.46230511 106.852099,6.96664298 C107.354513,6.47098086 108.033254,6.19520992 108.739,6.2 L108.739,3.355 C105.744918,3.33426162 103.278362,5.70063104 103.175,8.693 L103.175,8.689 Z M153.79,3.351 C150.767103,3.39119141 148.345328,5.86730954 148.372217,8.89035378 C148.399106,11.913398 150.864544,14.3460457 153.887677,14.3324593 C156.91081,14.3188729 159.354283,11.8641638 159.354,8.841 C159.331436,5.79005987 156.840955,3.33449176 153.79,3.355 L153.79,3.351 Z M153.79,11.485 C152.334471,11.4657307 151.168298,10.2735754 151.181102,8.81797517 C151.193906,7.3623749 152.38087,6.1909185 153.836513,6.19725673 C155.292155,6.20359496 156.468872,7.38534343 156.469,8.841 C156.465564,9.54761512 156.181219,10.2238479 155.678661,10.7205901 C155.176104,11.2173322 154.496607,11.4937882 153.79,11.489 L153.79,11.485 Z M144.211,14.336 L147.096,14.336 L147.096,3.355 L144.211,3.355 L144.211,14.336 L144.211,14.336 Z M141.132,10.643 C140.115711,10.656214 139.301288,11.4884557 139.310069,12.5047922 C139.31885,13.5211288 140.147531,14.3391746 141.163896,14.3348271 C142.180261,14.3304796 143.001914,13.5053745 143.002,12.489 C142.994844,11.4630781 142.157929,10.6369043 141.132,10.643 L141.132,10.643 Z" id="Logo"></path>
                </g>
                <g id="Group-6" transform="translate(0.000000, 21.000000)" fill="#FFFFFF">
                    <path d="M0.485351562,15 L1.63671875,15 L1.63671875,9.19042969 C1.63671875,7.64355469 2.70019531,6.41308594 4.07128906,6.41308594 C5.38085938,6.41308594 6.25097656,7.30078125 6.25097656,8.66308594 L6.25097656,15 L7.40234375,15 L7.40234375,8.99707031 C7.40234375,7.52929688 8.37792969,6.41308594 9.83691406,6.41308594 C11.2607422,6.41308594 12.0253906,7.23925781 12.0253906,8.78613281 L12.0253906,15 L13.1767578,15 L13.1767578,8.52246094 C13.1767578,6.51855469 12.078125,5.37597656 10.1796875,5.37597656 C8.81738281,5.37597656 7.70996094,6.10546875 7.2265625,7.23925781 L7.11230469,7.23925781 C6.70800781,6.10546875 5.75878906,5.37597656 4.43164062,5.37597656 C3.12207031,5.37597656 2.11132812,6.07910156 1.69824219,7.23925781 L1.58398438,7.23925781 L1.58398438,5.53417969 L0.485351562,5.53417969 L0.485351562,15 Z M18.8096484,14.1386719 C17.5352344,14.1386719 16.6123828,13.453125 16.6123828,12.3632812 C16.6123828,11.2822266 17.3858203,10.6845703 18.9942188,10.5703125 L21.7979297,10.3681641 L21.7979297,11.4755859 C21.7979297,12.9785156 20.5059375,14.1386719 18.8096484,14.1386719 L18.8096484,14.1386719 Z M18.6162891,15.1582031 C20.0049609,15.1582031 21.1651172,14.4990234 21.7451953,13.3740234 L21.8506641,13.3740234 L21.8506641,15 L22.9580859,15 L22.9580859,8.50488281 C22.9580859,6.53613281 21.70125,5.37597656 19.4776172,5.37597656 C17.4912891,5.37597656 16.0235156,6.36914062 15.8037891,7.87207031 L16.9727344,7.87207031 C17.20125,6.95800781 18.1416797,6.40429688 19.4424609,6.40429688 C20.9805469,6.40429688 21.7979297,7.16015625 21.7979297,8.51367188 L21.7979297,9.42773438 L18.8360156,9.62109375 C16.6475391,9.77050781 15.4258594,10.7285156 15.4258594,12.3808594 C15.4258594,14.0771484 16.7617969,15.1582031 18.6162891,15.1582031 L18.6162891,15.1582031 Z M29.3204688,15.1582031 C30.7706641,15.1582031 31.9923438,14.3759766 32.5548438,13.1103516 L32.6603125,13.1103516 L32.6603125,15 L33.7677344,15 L33.7677344,1.76367188 L32.6163672,1.76367188 L32.6163672,7.37988281 L32.5108984,7.37988281 C31.9747656,6.140625 30.761875,5.37597656 29.3204688,5.37597656 C26.9210547,5.37597656 25.3126563,7.3359375 25.3126563,10.2714844 C25.3126563,13.2070312 26.9034766,15.1582031 29.3204688,15.1582031 L29.3204688,15.1582031 Z M29.5665625,6.41308594 C31.4210547,6.41308594 32.6339453,7.94238281 32.6339453,10.2626953 C32.6339453,12.6005859 31.4298438,14.1123047 29.5665625,14.1123047 C27.6944922,14.1123047 26.4991797,12.6181641 26.4991797,10.2626953 C26.4991797,7.91601562 27.6944922,6.41308594 29.5665625,6.41308594 L29.5665625,6.41308594 Z M40.4904688,6.39550781 C42.2043359,6.39550781 43.338125,7.66992188 43.3644922,9.62109375 L37.4670313,9.62109375 C37.5725,7.66992188 38.7678125,6.39550781 40.4904688,6.39550781 L40.4904688,6.39550781 Z M43.2502344,12.6621094 C42.8459375,13.59375 41.8791406,14.1298828 40.5344141,14.1298828 C38.7062891,14.1298828 37.5197656,12.7587891 37.4582422,10.6230469 L37.4582422,10.5703125 L44.5685938,10.5703125 L44.5685938,10.0605469 C44.5685938,7.16894531 43.0217188,5.37597656 40.4992578,5.37597656 C37.9240625,5.37597656 36.2717188,7.30078125 36.2717188,10.2714844 C36.2717188,13.2597656 37.9064844,15.1582031 40.5080469,15.1582031 C42.494375,15.1582031 43.9533594,14.2001953 44.4191797,12.6621094 L43.2502344,12.6621094 Z M63.4632813,5.53417969 L62.303125,5.53417969 L60.1849609,13.5673828 L60.0794922,13.5673828 L57.7416016,5.53417969 L56.5902344,5.53417969 L54.2523438,13.5673828 L54.146875,13.5673828 L52.0462891,5.53417969 L50.8773438,5.53417969 L53.5580078,15 L54.7708984,15 L57.1,7.14257812 L57.2142578,7.14257812 L59.5433594,15 L60.7650391,15 L63.4632813,5.53417969 Z M65.5102344,15 L66.6616016,15 L66.6616016,5.53417969 L65.5102344,5.53417969 L65.5102344,15 Z M66.0815234,3.42480469 C66.5561328,3.42480469 66.9428516,3.03808594 66.9428516,2.56347656 C66.9428516,2.09765625 66.5561328,1.7109375 66.0815234,1.7109375 C65.6157031,1.7109375 65.2289844,2.09765625 65.2289844,2.56347656 C65.2289844,3.03808594 65.6157031,3.42480469 66.0815234,3.42480469 L66.0815234,3.42480469 Z M70.1939063,3.07324219 L70.1939063,5.53417969 L68.6470313,5.53417969 L68.6470313,6.50976562 L70.1939063,6.50976562 L70.1939063,12.6445312 C70.1939063,14.3671875 70.9146094,15.0527344 72.7251563,15.0527344 C72.9273047,15.0527344 73.3316016,15.0263672 73.53375,14.9912109 L73.53375,14.0068359 C73.3403906,14.0244141 73.0327735,14.0332031 72.8482031,14.0332031 C71.7847266,14.0332031 71.3452735,13.5410156 71.3452735,12.3808594 L71.3452735,6.50976562 L73.53375,6.50976562 L73.53375,5.53417969 L71.3452735,5.53417969 L71.3452735,3.07324219 L70.1939063,3.07324219 Z M75.9674219,15 L77.1187891,15 L77.1187891,9.375 C77.1187891,7.63476562 78.235,6.41308594 80.0279688,6.41308594 C81.61,6.41308594 82.4713281,7.35351562 82.4713281,9.13769531 L82.4713281,15 L83.6226953,15 L83.6226953,8.84765625 C83.6226953,6.65917969 82.3570703,5.37597656 80.335586,5.37597656 C78.8238672,5.37597656 77.7340235,6.0703125 77.2242578,7.23925781 L77.1187891,7.23925781 L77.1187891,1.76367188 L75.9674219,1.76367188 L75.9674219,15 Z" id="made-with"></path>
                    <path d="M124.295,0 L121.411,1.22 L121.411,9.043 L121.411,9.043 C121.514322,12.0338064 123.978467,14.399563 126.971,14.381 L126.971,11.53 C126.265254,11.5347901 125.586513,11.2590191 125.084099,10.763357 C124.581686,10.2676949 124.296758,9.59274614 124.292,8.887 L124.292,6.199 L126.971,6.199 L126.971,3.355 L124.295,3.355 L124.295,0 L124.295,0 Z M114.725,3.355 C111.702103,3.39519141 109.280328,5.87130954 109.307217,8.89435378 C109.334106,11.917398 111.799544,14.3500457 114.822677,14.3364593 C117.84581,14.3228729 120.289283,11.8681638 120.289,8.845 C120.268083,5.79272582 117.777281,3.33505054 114.725,3.355 L114.725,3.355 Z M114.725,11.489 C113.269731,11.4697336 112.103662,10.2779844 112.116097,8.8226412 C112.128532,7.36729798 113.314795,6.19564794 114.77018,6.20125128 C116.225566,6.20685461 117.402772,7.38760417 117.404,8.843 C117.400035,9.54926762 117.115456,10.2249866 116.612956,10.7212966 C116.110457,11.2176066 115.431263,11.4937887 114.725,11.489 L114.725,11.489 Z M133.234,3.355 C130.211243,3.3957402 127.789971,5.87209346 127.817223,8.89500263 C127.844476,11.9179118 130.310001,14.3502089 133.333002,14.3364444 C136.356002,14.32268 138.799276,11.868032 138.799,8.845 C138.778084,5.79233272 136.28667,3.33449576 133.234,3.355 L133.234,3.355 Z M133.234,11.489 C131.778454,11.4708313 130.611379,10.2795531 130.623086,8.82394032 C130.634794,7.36832758 131.82088,6.19597641 133.276531,6.20122313 C134.732181,6.20646986 135.909786,7.38734068 135.911,8.843 C135.902189,10.3128004 134.703803,11.4973087 133.234,11.489 L133.234,11.489 Z M96.564,3.355 C93.5117193,3.33505054 91.0209169,5.79272582 91,8.845 C91,8.917 91,8.989 91.006,9.061 L91,9.061 L91,16.573 L93.885,17.793 L93.885,13.658 C94.7073402,14.1042479 95.6283832,14.337345 96.564,14.336 C98.5432251,14.3627116 100.383643,13.3221095 101.381047,11.6123635 C102.378451,9.90261755 102.378451,7.78838245 101.381047,6.07863649 C100.383643,4.36889053 98.5432251,3.32828845 96.564,3.355 L96.564,3.355 Z M96.564,11.489 C95.1087312,11.4697336 93.9426625,10.2779844 93.9550975,8.8226412 C93.9675324,7.36729798 95.1537949,6.19564794 96.6091805,6.20125128 C98.064566,6.20685461 99.2417716,7.38760417 99.243,8.843 C99.2387699,9.54918463 98.9541069,10.2247488 98.451665,10.7210015 C97.9492232,11.2172543 97.2701828,11.4935226 96.564,11.489 L96.564,11.489 Z M103.175,8.689 L103.175,8.689 L103.175,14.372 L106.06,14.372 L106.06,8.843 C106.064758,8.13725386 106.349686,7.46230511 106.852099,6.96664298 C107.354513,6.47098086 108.033254,6.19520992 108.739,6.2 L108.739,3.355 C105.744918,3.33426162 103.278362,5.70063104 103.175,8.693 L103.175,8.689 Z M153.79,3.351 C150.767103,3.39119141 148.345328,5.86730954 148.372217,8.89035378 C148.399106,11.913398 150.864544,14.3460457 153.887677,14.3324593 C156.91081,14.3188729 159.354283,11.8641638 159.354,8.841 C159.331436,5.79005987 156.840955,3.33449176 153.79,3.355 L153.79,3.351 Z M153.79,11.485 C152.334471,11.4657307 151.168298,10.2735754 151.181102,8.81797517 C151.193906,7.3623749 152.38087,6.1909185 153.836513,6.19725673 C155.292155,6.20359496 156.468872,7.38534343 156.469,8.841 C156.465564,9.54761512 156.181219,10.2238479 155.678661,10.7205901 C155.176104,11.2173322 154.496607,11.4937882 153.79,11.489 L153.79,11.485 Z M144.211,14.336 L147.096,14.336 L147.096,3.355 L144.211,3.355 L144.211,14.336 L144.211,14.336 Z M141.132,10.643 C140.115711,10.656214 139.301288,11.4884557 139.310069,12.5047922 C139.31885,13.5211288 140.147531,14.3391746 141.163896,14.3348271 C142.180261,14.3304796 143.001914,13.5053745 143.002,12.489 C142.994844,11.4630781 142.157929,10.6369043 141.132,10.643 L141.132,10.643 Z" id="Logo"></path>
                </g>
            </g>
        </g>
    </g>
</svg>